<mxfile host="app.diagrams.net" agent="Mozilla/5.0 (X11; Linux x86_64; rv:129.0) Gecko/20100101 Firefox/129.0" version="24.7.8">
  <diagram name="Strona-1" id="Xl9JMCwNvS2fO5U7rrJG">
    <mxGraphModel dx="1185" dy="639" grid="1" gridSize="10" guides="1" tooltips="1" connect="1" arrows="1" fold="1" page="1" pageScale="1" pageWidth="827" pageHeight="1169" math="0" shadow="0">
      <root>
        <mxCell id="0" />
        <mxCell id="1" parent="0" />
        <mxCell id="oQ5xpOscNwTSuBOCqcio-7" value="Plan 1" style="text;html=1;align=center;verticalAlign=middle;resizable=0;points=[];autosize=1;strokeColor=none;fillColor=none;" vertex="1" parent="1">
          <mxGeometry x="40" y="85" width="60" height="30" as="geometry" />
        </mxCell>
        <mxCell id="6Tp1pISN4fMK60HC6Saa-381" value="" style="group" parent="1" vertex="1" connectable="0">
          <mxGeometry x="390" y="380" width="350" height="40" as="geometry" />
        </mxCell>
        <mxCell id="6Tp1pISN4fMK60HC6Saa-382" value="" style="group" parent="6Tp1pISN4fMK60HC6Saa-381" vertex="1" connectable="0">
          <mxGeometry width="80" height="40" as="geometry" />
        </mxCell>
        <mxCell id="6Tp1pISN4fMK60HC6Saa-383" value="" style="rounded=0;whiteSpace=wrap;html=1;" parent="6Tp1pISN4fMK60HC6Saa-382" vertex="1">
          <mxGeometry width="80" height="40" as="geometry" />
        </mxCell>
        <mxCell id="6Tp1pISN4fMK60HC6Saa-384" value="" style="endArrow=none;dashed=1;html=1;rounded=0;exitX=0.5;exitY=1;exitDx=0;exitDy=0;" parent="6Tp1pISN4fMK60HC6Saa-382" source="6Tp1pISN4fMK60HC6Saa-383" edge="1">
          <mxGeometry width="50" height="50" relative="1" as="geometry">
            <mxPoint x="50" y="45" as="sourcePoint" />
            <mxPoint x="40" as="targetPoint" />
          </mxGeometry>
        </mxCell>
        <mxCell id="6Tp1pISN4fMK60HC6Saa-385" value="1" style="text;strokeColor=none;align=center;fillColor=none;html=1;verticalAlign=middle;whiteSpace=wrap;rounded=0;" parent="6Tp1pISN4fMK60HC6Saa-382" vertex="1">
          <mxGeometry width="40" height="40" as="geometry" />
        </mxCell>
        <mxCell id="6Tp1pISN4fMK60HC6Saa-386" value="2" style="text;strokeColor=none;align=center;fillColor=none;html=1;verticalAlign=middle;whiteSpace=wrap;rounded=0;" parent="6Tp1pISN4fMK60HC6Saa-382" vertex="1">
          <mxGeometry x="40" width="40" height="40" as="geometry" />
        </mxCell>
        <mxCell id="6Tp1pISN4fMK60HC6Saa-387" value="" style="group" parent="6Tp1pISN4fMK60HC6Saa-381" vertex="1" connectable="0">
          <mxGeometry x="90" width="80" height="40" as="geometry" />
        </mxCell>
        <mxCell id="6Tp1pISN4fMK60HC6Saa-388" value="" style="rounded=0;whiteSpace=wrap;html=1;" parent="6Tp1pISN4fMK60HC6Saa-387" vertex="1">
          <mxGeometry width="80" height="40" as="geometry" />
        </mxCell>
        <mxCell id="6Tp1pISN4fMK60HC6Saa-389" value="" style="endArrow=none;dashed=1;html=1;rounded=0;exitX=0.5;exitY=1;exitDx=0;exitDy=0;" parent="6Tp1pISN4fMK60HC6Saa-387" source="6Tp1pISN4fMK60HC6Saa-388" edge="1">
          <mxGeometry width="50" height="50" relative="1" as="geometry">
            <mxPoint x="50" y="45" as="sourcePoint" />
            <mxPoint x="40" as="targetPoint" />
          </mxGeometry>
        </mxCell>
        <mxCell id="6Tp1pISN4fMK60HC6Saa-390" value="3" style="text;strokeColor=none;align=center;fillColor=none;html=1;verticalAlign=middle;whiteSpace=wrap;rounded=0;" parent="6Tp1pISN4fMK60HC6Saa-387" vertex="1">
          <mxGeometry width="40" height="40" as="geometry" />
        </mxCell>
        <mxCell id="6Tp1pISN4fMK60HC6Saa-391" value="4" style="text;strokeColor=none;align=center;fillColor=none;html=1;verticalAlign=middle;whiteSpace=wrap;rounded=0;" parent="6Tp1pISN4fMK60HC6Saa-387" vertex="1">
          <mxGeometry x="40" width="40" height="40" as="geometry" />
        </mxCell>
        <mxCell id="6Tp1pISN4fMK60HC6Saa-392" value="" style="group" parent="6Tp1pISN4fMK60HC6Saa-381" vertex="1" connectable="0">
          <mxGeometry x="180" width="80" height="40" as="geometry" />
        </mxCell>
        <mxCell id="6Tp1pISN4fMK60HC6Saa-393" value="" style="rounded=0;whiteSpace=wrap;html=1;" parent="6Tp1pISN4fMK60HC6Saa-392" vertex="1">
          <mxGeometry width="80" height="40" as="geometry" />
        </mxCell>
        <mxCell id="6Tp1pISN4fMK60HC6Saa-394" value="" style="endArrow=none;dashed=1;html=1;rounded=0;exitX=0.5;exitY=1;exitDx=0;exitDy=0;" parent="6Tp1pISN4fMK60HC6Saa-392" source="6Tp1pISN4fMK60HC6Saa-393" edge="1">
          <mxGeometry width="50" height="50" relative="1" as="geometry">
            <mxPoint x="50" y="45" as="sourcePoint" />
            <mxPoint x="40" as="targetPoint" />
          </mxGeometry>
        </mxCell>
        <mxCell id="6Tp1pISN4fMK60HC6Saa-395" value="5" style="text;strokeColor=none;align=center;fillColor=none;html=1;verticalAlign=middle;whiteSpace=wrap;rounded=0;" parent="6Tp1pISN4fMK60HC6Saa-392" vertex="1">
          <mxGeometry width="40" height="40" as="geometry" />
        </mxCell>
        <mxCell id="6Tp1pISN4fMK60HC6Saa-396" value="6" style="text;strokeColor=none;align=center;fillColor=none;html=1;verticalAlign=middle;whiteSpace=wrap;rounded=0;" parent="6Tp1pISN4fMK60HC6Saa-392" vertex="1">
          <mxGeometry x="40" width="40" height="40" as="geometry" />
        </mxCell>
        <mxCell id="6Tp1pISN4fMK60HC6Saa-397" value="" style="group" parent="6Tp1pISN4fMK60HC6Saa-381" vertex="1" connectable="0">
          <mxGeometry x="270" width="80" height="40" as="geometry" />
        </mxCell>
        <mxCell id="6Tp1pISN4fMK60HC6Saa-398" value="" style="rounded=0;whiteSpace=wrap;html=1;" parent="6Tp1pISN4fMK60HC6Saa-397" vertex="1">
          <mxGeometry width="80" height="40" as="geometry" />
        </mxCell>
        <mxCell id="6Tp1pISN4fMK60HC6Saa-399" value="" style="endArrow=none;dashed=1;html=1;rounded=0;exitX=0.5;exitY=1;exitDx=0;exitDy=0;" parent="6Tp1pISN4fMK60HC6Saa-397" source="6Tp1pISN4fMK60HC6Saa-398" edge="1">
          <mxGeometry width="50" height="50" relative="1" as="geometry">
            <mxPoint x="50" y="45" as="sourcePoint" />
            <mxPoint x="40" as="targetPoint" />
          </mxGeometry>
        </mxCell>
        <mxCell id="6Tp1pISN4fMK60HC6Saa-400" value="7" style="text;strokeColor=none;align=center;fillColor=none;html=1;verticalAlign=middle;whiteSpace=wrap;rounded=0;" parent="6Tp1pISN4fMK60HC6Saa-397" vertex="1">
          <mxGeometry width="40" height="40" as="geometry" />
        </mxCell>
        <mxCell id="6Tp1pISN4fMK60HC6Saa-401" value="" style="whiteSpace=wrap;html=1;aspect=fixed;dashed=1;" parent="6Tp1pISN4fMK60HC6Saa-397" vertex="1">
          <mxGeometry x="40" width="40" height="40" as="geometry" />
        </mxCell>
        <mxCell id="6Tp1pISN4fMK60HC6Saa-360" value="" style="group" parent="1" vertex="1" connectable="0">
          <mxGeometry x="350" y="330" width="350" height="40" as="geometry" />
        </mxCell>
        <mxCell id="6Tp1pISN4fMK60HC6Saa-361" value="" style="group" parent="6Tp1pISN4fMK60HC6Saa-360" vertex="1" connectable="0">
          <mxGeometry width="80" height="40" as="geometry" />
        </mxCell>
        <mxCell id="6Tp1pISN4fMK60HC6Saa-362" value="" style="rounded=0;whiteSpace=wrap;html=1;" parent="6Tp1pISN4fMK60HC6Saa-361" vertex="1">
          <mxGeometry width="80" height="40" as="geometry" />
        </mxCell>
        <mxCell id="6Tp1pISN4fMK60HC6Saa-363" value="" style="endArrow=none;dashed=1;html=1;rounded=0;exitX=0.5;exitY=1;exitDx=0;exitDy=0;" parent="6Tp1pISN4fMK60HC6Saa-361" source="6Tp1pISN4fMK60HC6Saa-362" edge="1">
          <mxGeometry width="50" height="50" relative="1" as="geometry">
            <mxPoint x="50" y="45" as="sourcePoint" />
            <mxPoint x="40" as="targetPoint" />
          </mxGeometry>
        </mxCell>
        <mxCell id="6Tp1pISN4fMK60HC6Saa-364" value="1" style="text;strokeColor=none;align=center;fillColor=none;html=1;verticalAlign=middle;whiteSpace=wrap;rounded=0;" parent="6Tp1pISN4fMK60HC6Saa-361" vertex="1">
          <mxGeometry width="40" height="40" as="geometry" />
        </mxCell>
        <mxCell id="6Tp1pISN4fMK60HC6Saa-365" value="2" style="text;strokeColor=none;align=center;fillColor=none;html=1;verticalAlign=middle;whiteSpace=wrap;rounded=0;" parent="6Tp1pISN4fMK60HC6Saa-361" vertex="1">
          <mxGeometry x="40" width="40" height="40" as="geometry" />
        </mxCell>
        <mxCell id="6Tp1pISN4fMK60HC6Saa-366" value="" style="group" parent="6Tp1pISN4fMK60HC6Saa-360" vertex="1" connectable="0">
          <mxGeometry x="90" width="80" height="40" as="geometry" />
        </mxCell>
        <mxCell id="6Tp1pISN4fMK60HC6Saa-367" value="" style="rounded=0;whiteSpace=wrap;html=1;" parent="6Tp1pISN4fMK60HC6Saa-366" vertex="1">
          <mxGeometry width="80" height="40" as="geometry" />
        </mxCell>
        <mxCell id="6Tp1pISN4fMK60HC6Saa-368" value="" style="endArrow=none;dashed=1;html=1;rounded=0;exitX=0.5;exitY=1;exitDx=0;exitDy=0;" parent="6Tp1pISN4fMK60HC6Saa-366" source="6Tp1pISN4fMK60HC6Saa-367" edge="1">
          <mxGeometry width="50" height="50" relative="1" as="geometry">
            <mxPoint x="50" y="45" as="sourcePoint" />
            <mxPoint x="40" as="targetPoint" />
          </mxGeometry>
        </mxCell>
        <mxCell id="6Tp1pISN4fMK60HC6Saa-369" value="3" style="text;strokeColor=none;align=center;fillColor=none;html=1;verticalAlign=middle;whiteSpace=wrap;rounded=0;" parent="6Tp1pISN4fMK60HC6Saa-366" vertex="1">
          <mxGeometry width="40" height="40" as="geometry" />
        </mxCell>
        <mxCell id="6Tp1pISN4fMK60HC6Saa-370" value="4" style="text;strokeColor=none;align=center;fillColor=none;html=1;verticalAlign=middle;whiteSpace=wrap;rounded=0;" parent="6Tp1pISN4fMK60HC6Saa-366" vertex="1">
          <mxGeometry x="40" width="40" height="40" as="geometry" />
        </mxCell>
        <mxCell id="6Tp1pISN4fMK60HC6Saa-371" value="" style="group" parent="6Tp1pISN4fMK60HC6Saa-360" vertex="1" connectable="0">
          <mxGeometry x="180" width="80" height="40" as="geometry" />
        </mxCell>
        <mxCell id="6Tp1pISN4fMK60HC6Saa-372" value="" style="rounded=0;whiteSpace=wrap;html=1;" parent="6Tp1pISN4fMK60HC6Saa-371" vertex="1">
          <mxGeometry width="80" height="40" as="geometry" />
        </mxCell>
        <mxCell id="6Tp1pISN4fMK60HC6Saa-373" value="" style="endArrow=none;dashed=1;html=1;rounded=0;exitX=0.5;exitY=1;exitDx=0;exitDy=0;" parent="6Tp1pISN4fMK60HC6Saa-371" source="6Tp1pISN4fMK60HC6Saa-372" edge="1">
          <mxGeometry width="50" height="50" relative="1" as="geometry">
            <mxPoint x="50" y="45" as="sourcePoint" />
            <mxPoint x="40" as="targetPoint" />
          </mxGeometry>
        </mxCell>
        <mxCell id="6Tp1pISN4fMK60HC6Saa-374" value="5" style="text;strokeColor=none;align=center;fillColor=none;html=1;verticalAlign=middle;whiteSpace=wrap;rounded=0;" parent="6Tp1pISN4fMK60HC6Saa-371" vertex="1">
          <mxGeometry width="40" height="40" as="geometry" />
        </mxCell>
        <mxCell id="6Tp1pISN4fMK60HC6Saa-375" value="6" style="text;strokeColor=none;align=center;fillColor=none;html=1;verticalAlign=middle;whiteSpace=wrap;rounded=0;" parent="6Tp1pISN4fMK60HC6Saa-371" vertex="1">
          <mxGeometry x="40" width="40" height="40" as="geometry" />
        </mxCell>
        <mxCell id="6Tp1pISN4fMK60HC6Saa-376" value="" style="group" parent="6Tp1pISN4fMK60HC6Saa-360" vertex="1" connectable="0">
          <mxGeometry x="270" width="80" height="40" as="geometry" />
        </mxCell>
        <mxCell id="6Tp1pISN4fMK60HC6Saa-377" value="" style="rounded=0;whiteSpace=wrap;html=1;" parent="6Tp1pISN4fMK60HC6Saa-376" vertex="1">
          <mxGeometry width="80" height="40" as="geometry" />
        </mxCell>
        <mxCell id="6Tp1pISN4fMK60HC6Saa-378" value="" style="endArrow=none;dashed=1;html=1;rounded=0;exitX=0.5;exitY=1;exitDx=0;exitDy=0;" parent="6Tp1pISN4fMK60HC6Saa-376" source="6Tp1pISN4fMK60HC6Saa-377" edge="1">
          <mxGeometry width="50" height="50" relative="1" as="geometry">
            <mxPoint x="50" y="45" as="sourcePoint" />
            <mxPoint x="40" as="targetPoint" />
          </mxGeometry>
        </mxCell>
        <mxCell id="6Tp1pISN4fMK60HC6Saa-379" value="7" style="text;strokeColor=none;align=center;fillColor=none;html=1;verticalAlign=middle;whiteSpace=wrap;rounded=0;" parent="6Tp1pISN4fMK60HC6Saa-376" vertex="1">
          <mxGeometry width="40" height="40" as="geometry" />
        </mxCell>
        <mxCell id="6Tp1pISN4fMK60HC6Saa-380" value="" style="whiteSpace=wrap;html=1;aspect=fixed;dashed=1;" parent="6Tp1pISN4fMK60HC6Saa-376" vertex="1">
          <mxGeometry x="40" width="40" height="40" as="geometry" />
        </mxCell>
        <mxCell id="6Tp1pISN4fMK60HC6Saa-339" value="" style="group" parent="1" vertex="1" connectable="0">
          <mxGeometry x="300" y="280" width="350" height="40" as="geometry" />
        </mxCell>
        <mxCell id="6Tp1pISN4fMK60HC6Saa-340" value="" style="group" parent="6Tp1pISN4fMK60HC6Saa-339" vertex="1" connectable="0">
          <mxGeometry width="80" height="40" as="geometry" />
        </mxCell>
        <mxCell id="6Tp1pISN4fMK60HC6Saa-341" value="" style="rounded=0;whiteSpace=wrap;html=1;" parent="6Tp1pISN4fMK60HC6Saa-340" vertex="1">
          <mxGeometry width="80" height="40" as="geometry" />
        </mxCell>
        <mxCell id="6Tp1pISN4fMK60HC6Saa-342" value="" style="endArrow=none;dashed=1;html=1;rounded=0;exitX=0.5;exitY=1;exitDx=0;exitDy=0;" parent="6Tp1pISN4fMK60HC6Saa-340" source="6Tp1pISN4fMK60HC6Saa-341" edge="1">
          <mxGeometry width="50" height="50" relative="1" as="geometry">
            <mxPoint x="50" y="45" as="sourcePoint" />
            <mxPoint x="40" as="targetPoint" />
          </mxGeometry>
        </mxCell>
        <mxCell id="6Tp1pISN4fMK60HC6Saa-343" value="1" style="text;strokeColor=none;align=center;fillColor=none;html=1;verticalAlign=middle;whiteSpace=wrap;rounded=0;" parent="6Tp1pISN4fMK60HC6Saa-340" vertex="1">
          <mxGeometry width="40" height="40" as="geometry" />
        </mxCell>
        <mxCell id="6Tp1pISN4fMK60HC6Saa-344" value="2" style="text;strokeColor=none;align=center;fillColor=none;html=1;verticalAlign=middle;whiteSpace=wrap;rounded=0;" parent="6Tp1pISN4fMK60HC6Saa-340" vertex="1">
          <mxGeometry x="40" width="40" height="40" as="geometry" />
        </mxCell>
        <mxCell id="6Tp1pISN4fMK60HC6Saa-345" value="" style="group" parent="6Tp1pISN4fMK60HC6Saa-339" vertex="1" connectable="0">
          <mxGeometry x="90" width="80" height="40" as="geometry" />
        </mxCell>
        <mxCell id="6Tp1pISN4fMK60HC6Saa-346" value="" style="rounded=0;whiteSpace=wrap;html=1;" parent="6Tp1pISN4fMK60HC6Saa-345" vertex="1">
          <mxGeometry width="80" height="40" as="geometry" />
        </mxCell>
        <mxCell id="6Tp1pISN4fMK60HC6Saa-347" value="" style="endArrow=none;dashed=1;html=1;rounded=0;exitX=0.5;exitY=1;exitDx=0;exitDy=0;" parent="6Tp1pISN4fMK60HC6Saa-345" source="6Tp1pISN4fMK60HC6Saa-346" edge="1">
          <mxGeometry width="50" height="50" relative="1" as="geometry">
            <mxPoint x="50" y="45" as="sourcePoint" />
            <mxPoint x="40" as="targetPoint" />
          </mxGeometry>
        </mxCell>
        <mxCell id="6Tp1pISN4fMK60HC6Saa-348" value="3" style="text;strokeColor=none;align=center;fillColor=none;html=1;verticalAlign=middle;whiteSpace=wrap;rounded=0;" parent="6Tp1pISN4fMK60HC6Saa-345" vertex="1">
          <mxGeometry width="40" height="40" as="geometry" />
        </mxCell>
        <mxCell id="6Tp1pISN4fMK60HC6Saa-349" value="4" style="text;strokeColor=none;align=center;fillColor=none;html=1;verticalAlign=middle;whiteSpace=wrap;rounded=0;" parent="6Tp1pISN4fMK60HC6Saa-345" vertex="1">
          <mxGeometry x="40" width="40" height="40" as="geometry" />
        </mxCell>
        <mxCell id="6Tp1pISN4fMK60HC6Saa-350" value="" style="group" parent="6Tp1pISN4fMK60HC6Saa-339" vertex="1" connectable="0">
          <mxGeometry x="180" width="80" height="40" as="geometry" />
        </mxCell>
        <mxCell id="6Tp1pISN4fMK60HC6Saa-351" value="" style="rounded=0;whiteSpace=wrap;html=1;" parent="6Tp1pISN4fMK60HC6Saa-350" vertex="1">
          <mxGeometry width="80" height="40" as="geometry" />
        </mxCell>
        <mxCell id="6Tp1pISN4fMK60HC6Saa-352" value="" style="endArrow=none;dashed=1;html=1;rounded=0;exitX=0.5;exitY=1;exitDx=0;exitDy=0;" parent="6Tp1pISN4fMK60HC6Saa-350" source="6Tp1pISN4fMK60HC6Saa-351" edge="1">
          <mxGeometry width="50" height="50" relative="1" as="geometry">
            <mxPoint x="50" y="45" as="sourcePoint" />
            <mxPoint x="40" as="targetPoint" />
          </mxGeometry>
        </mxCell>
        <mxCell id="6Tp1pISN4fMK60HC6Saa-353" value="5" style="text;strokeColor=none;align=center;fillColor=none;html=1;verticalAlign=middle;whiteSpace=wrap;rounded=0;" parent="6Tp1pISN4fMK60HC6Saa-350" vertex="1">
          <mxGeometry width="40" height="40" as="geometry" />
        </mxCell>
        <mxCell id="6Tp1pISN4fMK60HC6Saa-354" value="6" style="text;strokeColor=none;align=center;fillColor=none;html=1;verticalAlign=middle;whiteSpace=wrap;rounded=0;" parent="6Tp1pISN4fMK60HC6Saa-350" vertex="1">
          <mxGeometry x="40" width="40" height="40" as="geometry" />
        </mxCell>
        <mxCell id="6Tp1pISN4fMK60HC6Saa-355" value="" style="group" parent="6Tp1pISN4fMK60HC6Saa-339" vertex="1" connectable="0">
          <mxGeometry x="270" width="80" height="40" as="geometry" />
        </mxCell>
        <mxCell id="6Tp1pISN4fMK60HC6Saa-356" value="" style="rounded=0;whiteSpace=wrap;html=1;" parent="6Tp1pISN4fMK60HC6Saa-355" vertex="1">
          <mxGeometry width="80" height="40" as="geometry" />
        </mxCell>
        <mxCell id="6Tp1pISN4fMK60HC6Saa-357" value="" style="endArrow=none;dashed=1;html=1;rounded=0;exitX=0.5;exitY=1;exitDx=0;exitDy=0;" parent="6Tp1pISN4fMK60HC6Saa-355" source="6Tp1pISN4fMK60HC6Saa-356" edge="1">
          <mxGeometry width="50" height="50" relative="1" as="geometry">
            <mxPoint x="50" y="45" as="sourcePoint" />
            <mxPoint x="40" as="targetPoint" />
          </mxGeometry>
        </mxCell>
        <mxCell id="6Tp1pISN4fMK60HC6Saa-358" value="7" style="text;strokeColor=none;align=center;fillColor=none;html=1;verticalAlign=middle;whiteSpace=wrap;rounded=0;" parent="6Tp1pISN4fMK60HC6Saa-355" vertex="1">
          <mxGeometry width="40" height="40" as="geometry" />
        </mxCell>
        <mxCell id="6Tp1pISN4fMK60HC6Saa-359" value="" style="whiteSpace=wrap;html=1;aspect=fixed;dashed=1;" parent="6Tp1pISN4fMK60HC6Saa-355" vertex="1">
          <mxGeometry x="40" width="40" height="40" as="geometry" />
        </mxCell>
        <mxCell id="6Tp1pISN4fMK60HC6Saa-275" value="" style="group" parent="1" vertex="1" connectable="0">
          <mxGeometry x="120" y="80" width="350" height="40" as="geometry" />
        </mxCell>
        <mxCell id="6Tp1pISN4fMK60HC6Saa-3" value="" style="group" parent="6Tp1pISN4fMK60HC6Saa-275" vertex="1" connectable="0">
          <mxGeometry width="80" height="40" as="geometry" />
        </mxCell>
        <mxCell id="6Tp1pISN4fMK60HC6Saa-1" value="" style="rounded=0;whiteSpace=wrap;html=1;" parent="6Tp1pISN4fMK60HC6Saa-3" vertex="1">
          <mxGeometry width="80" height="40" as="geometry" />
        </mxCell>
        <mxCell id="6Tp1pISN4fMK60HC6Saa-2" value="" style="endArrow=none;dashed=1;html=1;rounded=0;exitX=0.5;exitY=1;exitDx=0;exitDy=0;" parent="6Tp1pISN4fMK60HC6Saa-3" source="6Tp1pISN4fMK60HC6Saa-1" edge="1">
          <mxGeometry width="50" height="50" relative="1" as="geometry">
            <mxPoint x="50" y="45" as="sourcePoint" />
            <mxPoint x="40" as="targetPoint" />
          </mxGeometry>
        </mxCell>
        <mxCell id="6Tp1pISN4fMK60HC6Saa-4" value="1" style="text;strokeColor=none;align=center;fillColor=none;html=1;verticalAlign=middle;whiteSpace=wrap;rounded=0;" parent="6Tp1pISN4fMK60HC6Saa-3" vertex="1">
          <mxGeometry width="40" height="40" as="geometry" />
        </mxCell>
        <mxCell id="6Tp1pISN4fMK60HC6Saa-9" value="2" style="text;strokeColor=none;align=center;fillColor=none;html=1;verticalAlign=middle;whiteSpace=wrap;rounded=0;" parent="6Tp1pISN4fMK60HC6Saa-3" vertex="1">
          <mxGeometry x="40" width="40" height="40" as="geometry" />
        </mxCell>
        <mxCell id="oQ5xpOscNwTSuBOCqcio-14" value="" style="endArrow=none;dashed=1;html=1;rounded=0;" edge="1" parent="6Tp1pISN4fMK60HC6Saa-3">
          <mxGeometry width="50" height="50" relative="1" as="geometry">
            <mxPoint x="-30" y="19.710000000000008" as="sourcePoint" />
            <mxPoint y="20" as="targetPoint" />
          </mxGeometry>
        </mxCell>
        <mxCell id="6Tp1pISN4fMK60HC6Saa-10" value="" style="group" parent="6Tp1pISN4fMK60HC6Saa-275" vertex="1" connectable="0">
          <mxGeometry x="90" width="80" height="40" as="geometry" />
        </mxCell>
        <mxCell id="6Tp1pISN4fMK60HC6Saa-11" value="" style="rounded=0;whiteSpace=wrap;html=1;" parent="6Tp1pISN4fMK60HC6Saa-10" vertex="1">
          <mxGeometry width="80" height="40" as="geometry" />
        </mxCell>
        <mxCell id="6Tp1pISN4fMK60HC6Saa-12" value="" style="endArrow=none;dashed=1;html=1;rounded=0;exitX=0.5;exitY=1;exitDx=0;exitDy=0;" parent="6Tp1pISN4fMK60HC6Saa-10" source="6Tp1pISN4fMK60HC6Saa-11" edge="1">
          <mxGeometry width="50" height="50" relative="1" as="geometry">
            <mxPoint x="50" y="45" as="sourcePoint" />
            <mxPoint x="40" as="targetPoint" />
          </mxGeometry>
        </mxCell>
        <mxCell id="6Tp1pISN4fMK60HC6Saa-13" value="3" style="text;strokeColor=none;align=center;fillColor=none;html=1;verticalAlign=middle;whiteSpace=wrap;rounded=0;" parent="6Tp1pISN4fMK60HC6Saa-10" vertex="1">
          <mxGeometry width="40" height="40" as="geometry" />
        </mxCell>
        <mxCell id="6Tp1pISN4fMK60HC6Saa-14" value="4" style="text;strokeColor=none;align=center;fillColor=none;html=1;verticalAlign=middle;whiteSpace=wrap;rounded=0;" parent="6Tp1pISN4fMK60HC6Saa-10" vertex="1">
          <mxGeometry x="40" width="40" height="40" as="geometry" />
        </mxCell>
        <mxCell id="6Tp1pISN4fMK60HC6Saa-16" value="" style="group" parent="6Tp1pISN4fMK60HC6Saa-275" vertex="1" connectable="0">
          <mxGeometry x="180" width="80" height="40" as="geometry" />
        </mxCell>
        <mxCell id="6Tp1pISN4fMK60HC6Saa-17" value="" style="rounded=0;whiteSpace=wrap;html=1;" parent="6Tp1pISN4fMK60HC6Saa-16" vertex="1">
          <mxGeometry width="80" height="40" as="geometry" />
        </mxCell>
        <mxCell id="6Tp1pISN4fMK60HC6Saa-18" value="" style="endArrow=none;dashed=1;html=1;rounded=0;exitX=0.5;exitY=1;exitDx=0;exitDy=0;" parent="6Tp1pISN4fMK60HC6Saa-16" source="6Tp1pISN4fMK60HC6Saa-17" edge="1">
          <mxGeometry width="50" height="50" relative="1" as="geometry">
            <mxPoint x="50" y="45" as="sourcePoint" />
            <mxPoint x="40" as="targetPoint" />
          </mxGeometry>
        </mxCell>
        <mxCell id="6Tp1pISN4fMK60HC6Saa-19" value="5" style="text;strokeColor=none;align=center;fillColor=none;html=1;verticalAlign=middle;whiteSpace=wrap;rounded=0;" parent="6Tp1pISN4fMK60HC6Saa-16" vertex="1">
          <mxGeometry width="40" height="40" as="geometry" />
        </mxCell>
        <mxCell id="6Tp1pISN4fMK60HC6Saa-20" value="6" style="text;strokeColor=none;align=center;fillColor=none;html=1;verticalAlign=middle;whiteSpace=wrap;rounded=0;" parent="6Tp1pISN4fMK60HC6Saa-16" vertex="1">
          <mxGeometry x="40" width="40" height="40" as="geometry" />
        </mxCell>
        <mxCell id="6Tp1pISN4fMK60HC6Saa-21" value="" style="group" parent="6Tp1pISN4fMK60HC6Saa-275" vertex="1" connectable="0">
          <mxGeometry x="270" width="80" height="40" as="geometry" />
        </mxCell>
        <mxCell id="6Tp1pISN4fMK60HC6Saa-22" value="" style="rounded=0;whiteSpace=wrap;html=1;" parent="6Tp1pISN4fMK60HC6Saa-21" vertex="1">
          <mxGeometry width="80" height="40" as="geometry" />
        </mxCell>
        <mxCell id="6Tp1pISN4fMK60HC6Saa-23" value="" style="endArrow=none;dashed=1;html=1;rounded=0;exitX=0.5;exitY=1;exitDx=0;exitDy=0;" parent="6Tp1pISN4fMK60HC6Saa-21" source="6Tp1pISN4fMK60HC6Saa-22" edge="1">
          <mxGeometry width="50" height="50" relative="1" as="geometry">
            <mxPoint x="50" y="45" as="sourcePoint" />
            <mxPoint x="40" as="targetPoint" />
          </mxGeometry>
        </mxCell>
        <mxCell id="6Tp1pISN4fMK60HC6Saa-24" value="7" style="text;strokeColor=none;align=center;fillColor=none;html=1;verticalAlign=middle;whiteSpace=wrap;rounded=0;" parent="6Tp1pISN4fMK60HC6Saa-21" vertex="1">
          <mxGeometry width="40" height="40" as="geometry" />
        </mxCell>
        <mxCell id="6Tp1pISN4fMK60HC6Saa-26" value="" style="whiteSpace=wrap;html=1;aspect=fixed;dashed=1;" parent="6Tp1pISN4fMK60HC6Saa-21" vertex="1">
          <mxGeometry x="40" width="40" height="40" as="geometry" />
        </mxCell>
        <mxCell id="6Tp1pISN4fMK60HC6Saa-276" value="" style="group" parent="1" vertex="1" connectable="0">
          <mxGeometry x="170" y="130" width="350" height="40" as="geometry" />
        </mxCell>
        <mxCell id="6Tp1pISN4fMK60HC6Saa-277" value="" style="group" parent="6Tp1pISN4fMK60HC6Saa-276" vertex="1" connectable="0">
          <mxGeometry width="80" height="40" as="geometry" />
        </mxCell>
        <mxCell id="6Tp1pISN4fMK60HC6Saa-278" value="" style="rounded=0;whiteSpace=wrap;html=1;" parent="6Tp1pISN4fMK60HC6Saa-277" vertex="1">
          <mxGeometry width="80" height="40" as="geometry" />
        </mxCell>
        <mxCell id="6Tp1pISN4fMK60HC6Saa-279" value="" style="endArrow=none;dashed=1;html=1;rounded=0;exitX=0.5;exitY=1;exitDx=0;exitDy=0;" parent="6Tp1pISN4fMK60HC6Saa-277" source="6Tp1pISN4fMK60HC6Saa-278" edge="1">
          <mxGeometry width="50" height="50" relative="1" as="geometry">
            <mxPoint x="50" y="45" as="sourcePoint" />
            <mxPoint x="40" as="targetPoint" />
          </mxGeometry>
        </mxCell>
        <mxCell id="6Tp1pISN4fMK60HC6Saa-280" value="1" style="text;strokeColor=none;align=center;fillColor=none;html=1;verticalAlign=middle;whiteSpace=wrap;rounded=0;" parent="6Tp1pISN4fMK60HC6Saa-277" vertex="1">
          <mxGeometry width="40" height="40" as="geometry" />
        </mxCell>
        <mxCell id="6Tp1pISN4fMK60HC6Saa-281" value="2" style="text;strokeColor=none;align=center;fillColor=none;html=1;verticalAlign=middle;whiteSpace=wrap;rounded=0;" parent="6Tp1pISN4fMK60HC6Saa-277" vertex="1">
          <mxGeometry x="40" width="40" height="40" as="geometry" />
        </mxCell>
        <mxCell id="6Tp1pISN4fMK60HC6Saa-282" value="" style="group" parent="6Tp1pISN4fMK60HC6Saa-276" vertex="1" connectable="0">
          <mxGeometry x="90" width="80" height="40" as="geometry" />
        </mxCell>
        <mxCell id="6Tp1pISN4fMK60HC6Saa-283" value="" style="rounded=0;whiteSpace=wrap;html=1;" parent="6Tp1pISN4fMK60HC6Saa-282" vertex="1">
          <mxGeometry width="80" height="40" as="geometry" />
        </mxCell>
        <mxCell id="6Tp1pISN4fMK60HC6Saa-284" value="" style="endArrow=none;dashed=1;html=1;rounded=0;exitX=0.5;exitY=1;exitDx=0;exitDy=0;" parent="6Tp1pISN4fMK60HC6Saa-282" source="6Tp1pISN4fMK60HC6Saa-283" edge="1">
          <mxGeometry width="50" height="50" relative="1" as="geometry">
            <mxPoint x="50" y="45" as="sourcePoint" />
            <mxPoint x="40" as="targetPoint" />
          </mxGeometry>
        </mxCell>
        <mxCell id="6Tp1pISN4fMK60HC6Saa-285" value="3" style="text;strokeColor=none;align=center;fillColor=none;html=1;verticalAlign=middle;whiteSpace=wrap;rounded=0;" parent="6Tp1pISN4fMK60HC6Saa-282" vertex="1">
          <mxGeometry width="40" height="40" as="geometry" />
        </mxCell>
        <mxCell id="6Tp1pISN4fMK60HC6Saa-286" value="4" style="text;strokeColor=none;align=center;fillColor=none;html=1;verticalAlign=middle;whiteSpace=wrap;rounded=0;" parent="6Tp1pISN4fMK60HC6Saa-282" vertex="1">
          <mxGeometry x="40" width="40" height="40" as="geometry" />
        </mxCell>
        <mxCell id="6Tp1pISN4fMK60HC6Saa-287" value="" style="group" parent="6Tp1pISN4fMK60HC6Saa-276" vertex="1" connectable="0">
          <mxGeometry x="180" width="80" height="40" as="geometry" />
        </mxCell>
        <mxCell id="6Tp1pISN4fMK60HC6Saa-288" value="" style="rounded=0;whiteSpace=wrap;html=1;" parent="6Tp1pISN4fMK60HC6Saa-287" vertex="1">
          <mxGeometry width="80" height="40" as="geometry" />
        </mxCell>
        <mxCell id="6Tp1pISN4fMK60HC6Saa-289" value="" style="endArrow=none;dashed=1;html=1;rounded=0;exitX=0.5;exitY=1;exitDx=0;exitDy=0;" parent="6Tp1pISN4fMK60HC6Saa-287" source="6Tp1pISN4fMK60HC6Saa-288" edge="1">
          <mxGeometry width="50" height="50" relative="1" as="geometry">
            <mxPoint x="50" y="45" as="sourcePoint" />
            <mxPoint x="40" as="targetPoint" />
          </mxGeometry>
        </mxCell>
        <mxCell id="6Tp1pISN4fMK60HC6Saa-290" value="5" style="text;strokeColor=none;align=center;fillColor=none;html=1;verticalAlign=middle;whiteSpace=wrap;rounded=0;" parent="6Tp1pISN4fMK60HC6Saa-287" vertex="1">
          <mxGeometry width="40" height="40" as="geometry" />
        </mxCell>
        <mxCell id="6Tp1pISN4fMK60HC6Saa-291" value="6" style="text;strokeColor=none;align=center;fillColor=none;html=1;verticalAlign=middle;whiteSpace=wrap;rounded=0;" parent="6Tp1pISN4fMK60HC6Saa-287" vertex="1">
          <mxGeometry x="40" width="40" height="40" as="geometry" />
        </mxCell>
        <mxCell id="6Tp1pISN4fMK60HC6Saa-292" value="" style="group" parent="6Tp1pISN4fMK60HC6Saa-276" vertex="1" connectable="0">
          <mxGeometry x="270" width="80" height="40" as="geometry" />
        </mxCell>
        <mxCell id="6Tp1pISN4fMK60HC6Saa-293" value="" style="rounded=0;whiteSpace=wrap;html=1;" parent="6Tp1pISN4fMK60HC6Saa-292" vertex="1">
          <mxGeometry width="80" height="40" as="geometry" />
        </mxCell>
        <mxCell id="6Tp1pISN4fMK60HC6Saa-294" value="" style="endArrow=none;dashed=1;html=1;rounded=0;exitX=0.5;exitY=1;exitDx=0;exitDy=0;" parent="6Tp1pISN4fMK60HC6Saa-292" source="6Tp1pISN4fMK60HC6Saa-293" edge="1">
          <mxGeometry width="50" height="50" relative="1" as="geometry">
            <mxPoint x="50" y="45" as="sourcePoint" />
            <mxPoint x="40" as="targetPoint" />
          </mxGeometry>
        </mxCell>
        <mxCell id="6Tp1pISN4fMK60HC6Saa-295" value="7" style="text;strokeColor=none;align=center;fillColor=none;html=1;verticalAlign=middle;whiteSpace=wrap;rounded=0;" parent="6Tp1pISN4fMK60HC6Saa-292" vertex="1">
          <mxGeometry width="40" height="40" as="geometry" />
        </mxCell>
        <mxCell id="6Tp1pISN4fMK60HC6Saa-296" value="" style="whiteSpace=wrap;html=1;aspect=fixed;dashed=1;" parent="6Tp1pISN4fMK60HC6Saa-292" vertex="1">
          <mxGeometry x="40" width="40" height="40" as="geometry" />
        </mxCell>
        <mxCell id="6Tp1pISN4fMK60HC6Saa-297" value="" style="group" parent="1" vertex="1" connectable="0">
          <mxGeometry x="210" y="180" width="350" height="40" as="geometry" />
        </mxCell>
        <mxCell id="6Tp1pISN4fMK60HC6Saa-298" value="" style="group" parent="6Tp1pISN4fMK60HC6Saa-297" vertex="1" connectable="0">
          <mxGeometry width="80" height="40" as="geometry" />
        </mxCell>
        <mxCell id="6Tp1pISN4fMK60HC6Saa-299" value="" style="rounded=0;whiteSpace=wrap;html=1;" parent="6Tp1pISN4fMK60HC6Saa-298" vertex="1">
          <mxGeometry width="80" height="40" as="geometry" />
        </mxCell>
        <mxCell id="6Tp1pISN4fMK60HC6Saa-300" value="" style="endArrow=none;dashed=1;html=1;rounded=0;exitX=0.5;exitY=1;exitDx=0;exitDy=0;" parent="6Tp1pISN4fMK60HC6Saa-298" source="6Tp1pISN4fMK60HC6Saa-299" edge="1">
          <mxGeometry width="50" height="50" relative="1" as="geometry">
            <mxPoint x="50" y="45" as="sourcePoint" />
            <mxPoint x="40" as="targetPoint" />
          </mxGeometry>
        </mxCell>
        <mxCell id="6Tp1pISN4fMK60HC6Saa-301" value="1" style="text;strokeColor=none;align=center;fillColor=none;html=1;verticalAlign=middle;whiteSpace=wrap;rounded=0;" parent="6Tp1pISN4fMK60HC6Saa-298" vertex="1">
          <mxGeometry width="40" height="40" as="geometry" />
        </mxCell>
        <mxCell id="6Tp1pISN4fMK60HC6Saa-302" value="2" style="text;strokeColor=none;align=center;fillColor=none;html=1;verticalAlign=middle;whiteSpace=wrap;rounded=0;" parent="6Tp1pISN4fMK60HC6Saa-298" vertex="1">
          <mxGeometry x="40" width="40" height="40" as="geometry" />
        </mxCell>
        <mxCell id="6Tp1pISN4fMK60HC6Saa-303" value="" style="group" parent="6Tp1pISN4fMK60HC6Saa-297" vertex="1" connectable="0">
          <mxGeometry x="90" width="80" height="40" as="geometry" />
        </mxCell>
        <mxCell id="6Tp1pISN4fMK60HC6Saa-304" value="" style="rounded=0;whiteSpace=wrap;html=1;" parent="6Tp1pISN4fMK60HC6Saa-303" vertex="1">
          <mxGeometry width="80" height="40" as="geometry" />
        </mxCell>
        <mxCell id="6Tp1pISN4fMK60HC6Saa-305" value="" style="endArrow=none;dashed=1;html=1;rounded=0;exitX=0.5;exitY=1;exitDx=0;exitDy=0;" parent="6Tp1pISN4fMK60HC6Saa-303" source="6Tp1pISN4fMK60HC6Saa-304" edge="1">
          <mxGeometry width="50" height="50" relative="1" as="geometry">
            <mxPoint x="50" y="45" as="sourcePoint" />
            <mxPoint x="40" as="targetPoint" />
          </mxGeometry>
        </mxCell>
        <mxCell id="6Tp1pISN4fMK60HC6Saa-306" value="3" style="text;strokeColor=none;align=center;fillColor=none;html=1;verticalAlign=middle;whiteSpace=wrap;rounded=0;" parent="6Tp1pISN4fMK60HC6Saa-303" vertex="1">
          <mxGeometry width="40" height="40" as="geometry" />
        </mxCell>
        <mxCell id="6Tp1pISN4fMK60HC6Saa-307" value="4" style="text;strokeColor=none;align=center;fillColor=none;html=1;verticalAlign=middle;whiteSpace=wrap;rounded=0;" parent="6Tp1pISN4fMK60HC6Saa-303" vertex="1">
          <mxGeometry x="40" width="40" height="40" as="geometry" />
        </mxCell>
        <mxCell id="6Tp1pISN4fMK60HC6Saa-308" value="" style="group" parent="6Tp1pISN4fMK60HC6Saa-297" vertex="1" connectable="0">
          <mxGeometry x="180" width="80" height="40" as="geometry" />
        </mxCell>
        <mxCell id="6Tp1pISN4fMK60HC6Saa-309" value="" style="rounded=0;whiteSpace=wrap;html=1;" parent="6Tp1pISN4fMK60HC6Saa-308" vertex="1">
          <mxGeometry width="80" height="40" as="geometry" />
        </mxCell>
        <mxCell id="6Tp1pISN4fMK60HC6Saa-310" value="" style="endArrow=none;dashed=1;html=1;rounded=0;exitX=0.5;exitY=1;exitDx=0;exitDy=0;" parent="6Tp1pISN4fMK60HC6Saa-308" source="6Tp1pISN4fMK60HC6Saa-309" edge="1">
          <mxGeometry width="50" height="50" relative="1" as="geometry">
            <mxPoint x="50" y="45" as="sourcePoint" />
            <mxPoint x="40" as="targetPoint" />
          </mxGeometry>
        </mxCell>
        <mxCell id="6Tp1pISN4fMK60HC6Saa-311" value="5" style="text;strokeColor=none;align=center;fillColor=none;html=1;verticalAlign=middle;whiteSpace=wrap;rounded=0;" parent="6Tp1pISN4fMK60HC6Saa-308" vertex="1">
          <mxGeometry width="40" height="40" as="geometry" />
        </mxCell>
        <mxCell id="6Tp1pISN4fMK60HC6Saa-312" value="6" style="text;strokeColor=none;align=center;fillColor=none;html=1;verticalAlign=middle;whiteSpace=wrap;rounded=0;" parent="6Tp1pISN4fMK60HC6Saa-308" vertex="1">
          <mxGeometry x="40" width="40" height="40" as="geometry" />
        </mxCell>
        <mxCell id="6Tp1pISN4fMK60HC6Saa-313" value="" style="group" parent="6Tp1pISN4fMK60HC6Saa-297" vertex="1" connectable="0">
          <mxGeometry x="270" width="80" height="40" as="geometry" />
        </mxCell>
        <mxCell id="6Tp1pISN4fMK60HC6Saa-314" value="" style="rounded=0;whiteSpace=wrap;html=1;" parent="6Tp1pISN4fMK60HC6Saa-313" vertex="1">
          <mxGeometry width="80" height="40" as="geometry" />
        </mxCell>
        <mxCell id="6Tp1pISN4fMK60HC6Saa-315" value="" style="endArrow=none;dashed=1;html=1;rounded=0;exitX=0.5;exitY=1;exitDx=0;exitDy=0;" parent="6Tp1pISN4fMK60HC6Saa-313" source="6Tp1pISN4fMK60HC6Saa-314" edge="1">
          <mxGeometry width="50" height="50" relative="1" as="geometry">
            <mxPoint x="50" y="45" as="sourcePoint" />
            <mxPoint x="40" as="targetPoint" />
          </mxGeometry>
        </mxCell>
        <mxCell id="6Tp1pISN4fMK60HC6Saa-316" value="7" style="text;strokeColor=none;align=center;fillColor=none;html=1;verticalAlign=middle;whiteSpace=wrap;rounded=0;" parent="6Tp1pISN4fMK60HC6Saa-313" vertex="1">
          <mxGeometry width="40" height="40" as="geometry" />
        </mxCell>
        <mxCell id="6Tp1pISN4fMK60HC6Saa-317" value="" style="whiteSpace=wrap;html=1;aspect=fixed;dashed=1;" parent="6Tp1pISN4fMK60HC6Saa-313" vertex="1">
          <mxGeometry x="40" width="40" height="40" as="geometry" />
        </mxCell>
        <mxCell id="6Tp1pISN4fMK60HC6Saa-318" value="" style="group" parent="1" vertex="1" connectable="0">
          <mxGeometry x="260" y="230" width="350" height="40" as="geometry" />
        </mxCell>
        <mxCell id="6Tp1pISN4fMK60HC6Saa-319" value="" style="group" parent="6Tp1pISN4fMK60HC6Saa-318" vertex="1" connectable="0">
          <mxGeometry width="80" height="40" as="geometry" />
        </mxCell>
        <mxCell id="6Tp1pISN4fMK60HC6Saa-320" value="" style="rounded=0;whiteSpace=wrap;html=1;" parent="6Tp1pISN4fMK60HC6Saa-319" vertex="1">
          <mxGeometry width="80" height="40" as="geometry" />
        </mxCell>
        <mxCell id="6Tp1pISN4fMK60HC6Saa-321" value="" style="endArrow=none;dashed=1;html=1;rounded=0;exitX=0.5;exitY=1;exitDx=0;exitDy=0;" parent="6Tp1pISN4fMK60HC6Saa-319" source="6Tp1pISN4fMK60HC6Saa-320" edge="1">
          <mxGeometry width="50" height="50" relative="1" as="geometry">
            <mxPoint x="50" y="45" as="sourcePoint" />
            <mxPoint x="40" as="targetPoint" />
          </mxGeometry>
        </mxCell>
        <mxCell id="6Tp1pISN4fMK60HC6Saa-322" value="1" style="text;strokeColor=none;align=center;fillColor=none;html=1;verticalAlign=middle;whiteSpace=wrap;rounded=0;" parent="6Tp1pISN4fMK60HC6Saa-319" vertex="1">
          <mxGeometry width="40" height="40" as="geometry" />
        </mxCell>
        <mxCell id="6Tp1pISN4fMK60HC6Saa-323" value="2" style="text;strokeColor=none;align=center;fillColor=none;html=1;verticalAlign=middle;whiteSpace=wrap;rounded=0;" parent="6Tp1pISN4fMK60HC6Saa-319" vertex="1">
          <mxGeometry x="40" width="40" height="40" as="geometry" />
        </mxCell>
        <mxCell id="6Tp1pISN4fMK60HC6Saa-324" value="" style="group" parent="6Tp1pISN4fMK60HC6Saa-318" vertex="1" connectable="0">
          <mxGeometry x="90" width="80" height="40" as="geometry" />
        </mxCell>
        <mxCell id="6Tp1pISN4fMK60HC6Saa-325" value="" style="rounded=0;whiteSpace=wrap;html=1;" parent="6Tp1pISN4fMK60HC6Saa-324" vertex="1">
          <mxGeometry width="80" height="40" as="geometry" />
        </mxCell>
        <mxCell id="6Tp1pISN4fMK60HC6Saa-326" value="" style="endArrow=none;dashed=1;html=1;rounded=0;exitX=0.5;exitY=1;exitDx=0;exitDy=0;" parent="6Tp1pISN4fMK60HC6Saa-324" source="6Tp1pISN4fMK60HC6Saa-325" edge="1">
          <mxGeometry width="50" height="50" relative="1" as="geometry">
            <mxPoint x="50" y="45" as="sourcePoint" />
            <mxPoint x="40" as="targetPoint" />
          </mxGeometry>
        </mxCell>
        <mxCell id="6Tp1pISN4fMK60HC6Saa-327" value="3" style="text;strokeColor=none;align=center;fillColor=none;html=1;verticalAlign=middle;whiteSpace=wrap;rounded=0;" parent="6Tp1pISN4fMK60HC6Saa-324" vertex="1">
          <mxGeometry width="40" height="40" as="geometry" />
        </mxCell>
        <mxCell id="6Tp1pISN4fMK60HC6Saa-328" value="4" style="text;strokeColor=none;align=center;fillColor=none;html=1;verticalAlign=middle;whiteSpace=wrap;rounded=0;" parent="6Tp1pISN4fMK60HC6Saa-324" vertex="1">
          <mxGeometry x="40" width="40" height="40" as="geometry" />
        </mxCell>
        <mxCell id="6Tp1pISN4fMK60HC6Saa-329" value="" style="group" parent="6Tp1pISN4fMK60HC6Saa-318" vertex="1" connectable="0">
          <mxGeometry x="180" width="80" height="40" as="geometry" />
        </mxCell>
        <mxCell id="6Tp1pISN4fMK60HC6Saa-330" value="" style="rounded=0;whiteSpace=wrap;html=1;" parent="6Tp1pISN4fMK60HC6Saa-329" vertex="1">
          <mxGeometry width="80" height="40" as="geometry" />
        </mxCell>
        <mxCell id="6Tp1pISN4fMK60HC6Saa-331" value="" style="endArrow=none;dashed=1;html=1;rounded=0;exitX=0.5;exitY=1;exitDx=0;exitDy=0;" parent="6Tp1pISN4fMK60HC6Saa-329" source="6Tp1pISN4fMK60HC6Saa-330" edge="1">
          <mxGeometry width="50" height="50" relative="1" as="geometry">
            <mxPoint x="50" y="45" as="sourcePoint" />
            <mxPoint x="40" as="targetPoint" />
          </mxGeometry>
        </mxCell>
        <mxCell id="6Tp1pISN4fMK60HC6Saa-332" value="5" style="text;strokeColor=none;align=center;fillColor=none;html=1;verticalAlign=middle;whiteSpace=wrap;rounded=0;" parent="6Tp1pISN4fMK60HC6Saa-329" vertex="1">
          <mxGeometry width="40" height="40" as="geometry" />
        </mxCell>
        <mxCell id="6Tp1pISN4fMK60HC6Saa-333" value="6" style="text;strokeColor=none;align=center;fillColor=none;html=1;verticalAlign=middle;whiteSpace=wrap;rounded=0;" parent="6Tp1pISN4fMK60HC6Saa-329" vertex="1">
          <mxGeometry x="40" width="40" height="40" as="geometry" />
        </mxCell>
        <mxCell id="6Tp1pISN4fMK60HC6Saa-334" value="" style="group" parent="6Tp1pISN4fMK60HC6Saa-318" vertex="1" connectable="0">
          <mxGeometry x="270" width="80" height="40" as="geometry" />
        </mxCell>
        <mxCell id="6Tp1pISN4fMK60HC6Saa-335" value="" style="rounded=0;whiteSpace=wrap;html=1;" parent="6Tp1pISN4fMK60HC6Saa-334" vertex="1">
          <mxGeometry width="80" height="40" as="geometry" />
        </mxCell>
        <mxCell id="6Tp1pISN4fMK60HC6Saa-336" value="" style="endArrow=none;dashed=1;html=1;rounded=0;exitX=0.5;exitY=1;exitDx=0;exitDy=0;" parent="6Tp1pISN4fMK60HC6Saa-334" source="6Tp1pISN4fMK60HC6Saa-335" edge="1">
          <mxGeometry width="50" height="50" relative="1" as="geometry">
            <mxPoint x="50" y="45" as="sourcePoint" />
            <mxPoint x="40" as="targetPoint" />
          </mxGeometry>
        </mxCell>
        <mxCell id="6Tp1pISN4fMK60HC6Saa-337" value="7" style="text;strokeColor=none;align=center;fillColor=none;html=1;verticalAlign=middle;whiteSpace=wrap;rounded=0;" parent="6Tp1pISN4fMK60HC6Saa-334" vertex="1">
          <mxGeometry width="40" height="40" as="geometry" />
        </mxCell>
        <mxCell id="6Tp1pISN4fMK60HC6Saa-338" value="" style="whiteSpace=wrap;html=1;aspect=fixed;dashed=1;" parent="6Tp1pISN4fMK60HC6Saa-334" vertex="1">
          <mxGeometry x="40" width="40" height="40" as="geometry" />
        </mxCell>
        <mxCell id="oQ5xpOscNwTSuBOCqcio-4" value="" style="shape=flexArrow;endArrow=classic;html=1;rounded=0;fillColor=#FFFFCC;opacity=50;" edge="1" parent="1">
          <mxGeometry width="50" height="50" relative="1" as="geometry">
            <mxPoint x="410" y="60" as="sourcePoint" />
            <mxPoint x="409.71" y="460" as="targetPoint" />
          </mxGeometry>
        </mxCell>
        <mxCell id="oQ5xpOscNwTSuBOCqcio-8" value="Plan 2" style="text;html=1;align=center;verticalAlign=middle;resizable=0;points=[];autosize=1;strokeColor=none;fillColor=none;" vertex="1" parent="1">
          <mxGeometry x="40" y="135" width="60" height="30" as="geometry" />
        </mxCell>
        <mxCell id="oQ5xpOscNwTSuBOCqcio-9" value="Plan 3" style="text;html=1;align=center;verticalAlign=middle;resizable=0;points=[];autosize=1;strokeColor=none;fillColor=none;" vertex="1" parent="1">
          <mxGeometry x="40" y="185" width="60" height="30" as="geometry" />
        </mxCell>
        <mxCell id="oQ5xpOscNwTSuBOCqcio-10" value="semestr&lt;br&gt;bieżący" style="text;html=1;align=center;verticalAlign=middle;resizable=0;points=[];autosize=1;strokeColor=none;fillColor=none;" vertex="1" parent="1">
          <mxGeometry x="375" y="20" width="70" height="40" as="geometry" />
        </mxCell>
        <mxCell id="oQ5xpOscNwTSuBOCqcio-16" value="" style="endArrow=none;dashed=1;html=1;rounded=0;entryX=0;entryY=0.5;entryDx=0;entryDy=0;" edge="1" parent="1" target="6Tp1pISN4fMK60HC6Saa-280">
          <mxGeometry width="50" height="50" relative="1" as="geometry">
            <mxPoint x="90" y="149.71" as="sourcePoint" />
            <mxPoint x="120" y="150" as="targetPoint" />
          </mxGeometry>
        </mxCell>
        <mxCell id="oQ5xpOscNwTSuBOCqcio-17" value="" style="endArrow=none;dashed=1;html=1;rounded=0;entryX=0;entryY=0.5;entryDx=0;entryDy=0;" edge="1" parent="1" target="6Tp1pISN4fMK60HC6Saa-301">
          <mxGeometry width="50" height="50" relative="1" as="geometry">
            <mxPoint x="90" y="199.71" as="sourcePoint" />
            <mxPoint x="120" y="200" as="targetPoint" />
          </mxGeometry>
        </mxCell>
        <mxCell id="oQ5xpOscNwTSuBOCqcio-18" value="Plan 4" style="text;html=1;align=center;verticalAlign=middle;resizable=0;points=[];autosize=1;strokeColor=none;fillColor=none;" vertex="1" parent="1">
          <mxGeometry x="40" y="235" width="60" height="30" as="geometry" />
        </mxCell>
        <mxCell id="oQ5xpOscNwTSuBOCqcio-19" value="" style="endArrow=none;dashed=1;html=1;rounded=0;entryX=0;entryY=0.5;entryDx=0;entryDy=0;" edge="1" parent="1" target="6Tp1pISN4fMK60HC6Saa-322">
          <mxGeometry width="50" height="50" relative="1" as="geometry">
            <mxPoint x="90" y="249.71" as="sourcePoint" />
            <mxPoint x="210" y="250" as="targetPoint" />
          </mxGeometry>
        </mxCell>
        <mxCell id="oQ5xpOscNwTSuBOCqcio-20" value="Plan 5" style="text;html=1;align=center;verticalAlign=middle;resizable=0;points=[];autosize=1;strokeColor=none;fillColor=none;" vertex="1" parent="1">
          <mxGeometry x="40" y="285" width="60" height="30" as="geometry" />
        </mxCell>
        <mxCell id="oQ5xpOscNwTSuBOCqcio-21" value="" style="endArrow=none;dashed=1;html=1;rounded=0;entryX=0;entryY=0.5;entryDx=0;entryDy=0;" edge="1" parent="1" target="6Tp1pISN4fMK60HC6Saa-343">
          <mxGeometry width="50" height="50" relative="1" as="geometry">
            <mxPoint x="90" y="299.71000000000004" as="sourcePoint" />
            <mxPoint x="210" y="300" as="targetPoint" />
          </mxGeometry>
        </mxCell>
        <mxCell id="oQ5xpOscNwTSuBOCqcio-22" value="Plan 6" style="text;html=1;align=center;verticalAlign=middle;resizable=0;points=[];autosize=1;strokeColor=none;fillColor=none;" vertex="1" parent="1">
          <mxGeometry x="40" y="335" width="60" height="30" as="geometry" />
        </mxCell>
        <mxCell id="oQ5xpOscNwTSuBOCqcio-23" value="" style="endArrow=none;dashed=1;html=1;rounded=0;entryX=0;entryY=0.5;entryDx=0;entryDy=0;" edge="1" parent="1" target="6Tp1pISN4fMK60HC6Saa-364">
          <mxGeometry width="50" height="50" relative="1" as="geometry">
            <mxPoint x="90" y="349.71000000000004" as="sourcePoint" />
            <mxPoint x="210" y="350" as="targetPoint" />
          </mxGeometry>
        </mxCell>
        <mxCell id="oQ5xpOscNwTSuBOCqcio-24" value="Plan 7" style="text;html=1;align=center;verticalAlign=middle;resizable=0;points=[];autosize=1;strokeColor=none;fillColor=none;" vertex="1" parent="1">
          <mxGeometry x="40" y="385" width="60" height="30" as="geometry" />
        </mxCell>
        <mxCell id="oQ5xpOscNwTSuBOCqcio-25" value="" style="endArrow=none;dashed=1;html=1;rounded=0;entryX=0;entryY=0.5;entryDx=0;entryDy=0;" edge="1" parent="1" target="6Tp1pISN4fMK60HC6Saa-385">
          <mxGeometry width="50" height="50" relative="1" as="geometry">
            <mxPoint x="90" y="399.71000000000004" as="sourcePoint" />
            <mxPoint x="210" y="400" as="targetPoint" />
          </mxGeometry>
        </mxCell>
      </root>
    </mxGraphModel>
  </diagram>
</mxfile>
